<?xml version="1.0" encoding="UTF-8"?>
<svg xmlns="http://www.w3.org/2000/svg" xmlns:xlink="http://www.w3.org/1999/xlink" width="250pt" height="250pt" viewBox="0 0 250 250" version="1.1">
<g id="surface2536797">
<path style=" stroke:none;fill-rule:nonzero;fill:rgb(10.196078%,73.72549%,61.176471%);fill-opacity:1;" d="M 114.582031 31.25 L 114.582031 84.980469 C 110.96875 83.511719 103.167969 83.332031 99.324219 83.332031 C 70.40625 83.332031 43.640625 96.9375 43.640625 135.417969 C 43.640625 181.457031 79.894531 187.5 104.167969 187.5 C 113.75 187.5 135.417969 186.554688 145.832031 183.53125 L 145.832031 31.25 Z M 166.667969 31.25 L 166.667969 62.5 L 197.917969 62.5 L 197.917969 31.25 Z M 166.667969 83.332031 L 166.667969 173.96875 C 166.667969 189.761719 157.0625 206.199219 135.417969 215.636719 L 165.203125 229.125 C 195.472656 218.710938 197.917969 184.386719 197.917969 173.96875 L 197.917969 83.332031 Z M 103.863281 109.902344 C 107.195312 109.902344 110.9375 110.515625 114.582031 111.347656 L 114.582031 160.339844 C 110.9375 161.171875 107.195312 161.804688 103.863281 161.804688 C 90.214844 161.804688 76.984375 157.5 76.984375 135.417969 C 76.984375 113.332031 90.214844 109.902344 103.863281 109.902344 Z M 103.863281 109.902344 "/>
</g>
</svg>
